<?xml version="1.0" encoding="UTF-8"?>
<svg id="Layer_2" data-name="Layer 2" xmlns="http://www.w3.org/2000/svg" viewBox="0 0 477 477">
  <defs>
    <style>
      .cls-1 {
        fill: #000;
        stroke-width: 0px;
      }

      .cls-2 {
        fill: none;
        stroke: #000;
        stroke-miterlimit: 10;
        stroke-width: 24px;
      }
    </style>
  </defs>
  <path class="cls-1" d="M364.38,187.04c-22.67,0-43.33,13.67-54.8,36.05v-68.01c0-49.24-27.07-84.73-94.95-84.73s-100.26,33.72-103.8,85.18h39.92c3.56-32.38,27.96-50.57,63.88-50.57,31.95,0,53.68,14.63,53.68,38.6,0,17.74-11.97,28.39-49.24,28.39h-23.52c-58.56,0-94.05,25.72-94.05,75.86,0,53.23,38.6,79.4,86.5,79.4,36.74,0,67.57-16.5,81.44-48.75v128.16h38.6v-92.73c.44-10.09,1.2-27.92,1.45-37.88.11-.68.21-1.39.32-2.04,5.33-29.28,24.85-50.14,52.36-50.14,5.31,0,9.3.45,13.31,1.34v-36.83c-3.56-.89-6.66-1.32-11.11-1.32ZM194.67,292.63c-36.38,0-51.46-22.2-51.46-44.81,0-21.29,13.29-41.27,53.23-41.27h14.2c27.5,0,45.85-7.38,54.33-20.68,1.28-2,4.36-1.12,4.39,1.25l.29,19.88c0,59.44-35.06,85.63-74.97,85.63Z"/>
  <rect class="cls-2" x="12" y="12" width="453" height="453"/>
</svg>