<svg width="477" height="477" viewBox="0 0 477 477" fill="none" xmlns="http://www.w3.org/2000/svg">
<g clip-path="url(#clip0_2307_429)">
<rect width="477" height="477" fill="#F9668A"/>
<path d="M364.38 187.04C341.71 187.04 321.05 200.71 309.58 223.09V155.08C309.58 105.84 282.51 70.35 214.63 70.35C146.75 70.35 114.37 104.07 110.83 155.53H150.75C154.31 123.15 178.71 104.96 214.63 104.96C246.58 104.96 268.31 119.59 268.31 143.56C268.31 161.3 256.34 171.95 219.07 171.95H195.55C136.99 171.95 101.5 197.67 101.5 247.81C101.5 301.04 140.1 327.21 188 327.21C224.74 327.21 255.57 310.71 269.44 278.46V406.62H308.04V313.89C308.48 303.8 309.24 285.97 309.49 276.01C309.6 275.33 309.7 274.62 309.81 273.97C315.14 244.69 334.66 223.83 362.17 223.83C367.48 223.83 371.47 224.28 375.48 225.17V188.34C371.92 187.45 368.82 187.02 364.37 187.02L364.38 187.04ZM194.67 292.63C158.29 292.63 143.21 270.43 143.21 247.82C143.21 226.53 156.5 206.55 196.44 206.55H210.64C238.14 206.55 256.49 199.17 264.97 185.87C266.25 183.87 269.33 184.75 269.36 187.12L269.65 207C269.65 266.44 234.59 292.63 194.68 292.63H194.67Z" fill="white"/>
<path d="M465 12H12V465H465V12Z" stroke="white" stroke-width="24" stroke-miterlimit="10"/>
</g>
<defs>
<clipPath id="clip0_2307_429">
<rect width="477" height="477" fill="white"/>
</clipPath>
</defs>
</svg>
