<svg width="20" height="20" viewBox="0 0 20 20" fill="none" xmlns="http://www.w3.org/2000/svg">
<path d="M18.3332 9.99992C18.3332 5.39755 14.6022 1.66659 9.99984 1.66659C5.39746 1.66659 1.6665 5.39755 1.6665 9.99992C1.6665 14.6023 5.39746 18.3333 9.99984 18.3333C14.6022 18.3333 18.3332 14.6023 18.3332 9.99992ZM7.29151 7.91658C6.94633 7.91658 6.66651 7.63676 6.66651 7.29158C6.66651 6.94641 6.94633 6.66658 7.29151 6.66658L12.7082 6.66658C13.0534 6.66658 13.3332 6.94641 13.3332 7.29158L13.3332 12.7083C13.3332 13.0534 13.0534 13.3333 12.7082 13.3333C12.363 13.3333 12.0832 13.0534 12.0832 12.7083L12.0832 8.75792L7.73559 13.148C7.49271 13.3933 7.09698 13.3952 6.85172 13.1523C6.60646 12.9095 6.60453 12.5137 6.84742 12.2685L11.1571 7.91658L7.29151 7.91658Z" fill="#1A1A1A"/>
</svg>
