<svg width="30" height="30" viewBox="0 0 30 30" fill="none" xmlns="http://www.w3.org/2000/svg">
<g clip-path="url(#clip0_2307_418)">
<path d="M22.9171 11.7633C21.4913 11.7633 20.192 12.6231 19.4706 14.0306V9.75325C19.4706 6.65639 17.7681 4.42432 13.4989 4.42432C9.2297 4.42432 7.19322 6.54507 6.97058 9.78155H9.48127C9.70517 7.74507 11.2398 6.60105 13.4989 6.60105C15.5083 6.60105 16.875 7.52117 16.875 9.02872C16.875 10.1444 16.1222 10.8143 13.7781 10.8143H12.2989C8.61586 10.8143 6.38379 12.4319 6.38379 15.5853C6.38379 18.9331 8.81146 20.579 11.824 20.579C14.1347 20.579 16.0737 19.5413 16.9461 17.513V25.5734H19.3737V19.7413C19.4014 19.1067 19.4492 17.9853 19.4649 17.3589C19.4718 17.3161 19.4781 17.2715 19.485 17.2306C19.8203 15.3891 21.0479 14.0771 22.7781 14.0771C23.1121 14.0771 23.363 14.1054 23.6152 14.1614V11.8451C23.3913 11.7891 23.1964 11.7621 22.9165 11.7621L22.9171 11.7633ZM12.2435 18.4042C9.95549 18.4042 9.00706 17.008 9.00706 15.586C9.00706 14.247 9.84291 12.9904 12.3549 12.9904H13.2479C14.9775 12.9904 16.1316 12.5262 16.6649 11.6897C16.7454 11.5639 16.9391 11.6193 16.941 11.7683L16.9593 13.0187C16.9593 16.757 14.7542 18.4042 12.2442 18.4042H12.2435Z" fill="#F9668A"/>
<path d="M29.2455 0.754639H0.754883V29.2452H29.2455V0.754639Z" stroke="#F9668A" stroke-width="1.50943" stroke-miterlimit="10" stroke-linejoin="round"/>
</g>
<defs>
<clipPath id="clip0_2307_418">
<rect width="30" height="30" fill="white"/>
</clipPath>
</defs>
</svg>
