<svg width="39" height="40" viewBox="0 0 39 40" fill="none" xmlns="http://www.w3.org/2000/svg">
<path d="M24.1252 15H22.7502C22.0872 15 21.4513 15.2634 20.9824 15.7322C20.5136 16.2011 20.2502 16.837 20.2502 17.5V22.5C20.2502 23.8261 19.7234 25.0979 18.7857 26.0355C17.848 26.9732 16.5763 27.5 15.2502 27.5H13.8752C13.5654 29.0176 12.7032 30.366 11.4557 31.284C10.2082 32.202 8.66429 32.624 7.12328 32.4684C5.58228 32.3127 4.15397 31.5904 3.11527 30.4415C2.07656 29.2925 1.50146 27.7989 1.50146 26.25C1.50146 24.7012 2.07656 23.2075 3.11527 22.0586C4.15397 20.9097 5.58228 20.1873 7.12328 20.0317C8.66429 19.876 10.2082 20.2981 11.4557 21.216C12.7032 22.134 13.5654 23.4825 13.8752 25H15.2502C15.9132 25 16.5491 24.7366 17.018 24.2678C17.4868 23.7989 17.7502 23.1631 17.7502 22.5V17.5C17.7502 16.1739 18.277 14.9022 19.2147 13.9645C20.1523 13.0268 21.4241 12.5 22.7502 12.5H24.1252C24.435 10.9825 25.2972 9.63398 26.5447 8.71602C27.7922 7.79805 29.3361 7.37599 30.8771 7.53166C32.4181 7.68734 33.8464 8.40965 34.8851 9.55857C35.9238 10.7075 36.4989 12.2012 36.4989 13.75C36.4989 15.2989 35.9238 16.7925 34.8851 17.9415C33.8464 19.0904 32.4181 19.8127 30.8771 19.9684C29.3361 20.124 27.7922 19.702 26.5447 18.784C25.2972 17.866 24.435 16.5176 24.1252 15Z" fill="#F9668A"/>
</svg>
