<svg width="40" height="40" viewBox="0 0 40 40" fill="none" xmlns="http://www.w3.org/2000/svg">
<path fill-rule="evenodd" clip-rule="evenodd" d="M15.0001 20H11.2201C10.8532 20.6355 10.2869 21.1321 9.60894 21.4129C8.93102 21.6937 8.17938 21.743 7.4706 21.5531C6.76183 21.3632 6.13552 20.9447 5.68882 20.3625C5.24212 19.7804 5 19.0671 5 18.3333C5 17.5996 5.24212 16.8863 5.68882 16.3041C6.13552 15.722 6.76183 15.3035 7.4706 15.1136C8.17938 14.9237 8.93102 14.9729 9.60894 15.2537C10.2869 15.5345 10.8532 16.0312 11.2201 16.6667H15.0001V8.33333C15.0001 7.44928 15.3513 6.60143 15.9764 5.97631C16.6015 5.35119 17.4494 5 18.3334 5H31.6668C32.5508 5 33.3987 5.35119 34.0238 5.97631C34.6489 6.60143 35.0001 7.44928 35.0001 8.33333V31.6667C35.0001 32.5507 34.6489 33.3986 34.0238 34.0237C33.3987 34.6488 32.5508 35 31.6668 35H18.3334C17.4494 35 16.6015 34.6488 15.9764 34.0237C15.3513 33.3986 15.0001 32.5507 15.0001 31.6667V20ZM18.3334 20V31.6667H31.6668V8.33333H18.3334V16.6667H22.1134C22.4803 16.0312 23.0466 15.5345 23.7246 15.2537C24.4025 14.9729 25.1541 14.9237 25.8629 15.1136C26.5717 15.3035 27.198 15.722 27.6447 16.3041C28.0914 16.8863 28.3335 17.5996 28.3335 18.3333C28.3335 19.0671 28.0914 19.7804 27.6447 20.3625C27.198 20.9447 26.5717 21.3632 25.8629 21.5531C25.1541 21.743 24.4025 21.6937 23.7246 21.4129C23.0466 21.1321 22.4803 20.6355 22.1134 20H18.3334Z" fill="#F9668A"/>
</svg>
