<svg width="40" height="40" viewBox="0 0 40 40" fill="none" xmlns="http://www.w3.org/2000/svg">
<path d="M24.9999 5H8.33327C6.48327 5 4.99993 6.48333 4.99993 8.33333V18.0333C7.04341 16.0681 9.77542 14.9815 12.6105 15.0064C15.4455 15.0313 18.158 16.1658 20.1666 18.1667C22.192 20.2042 23.3288 22.9604 23.3288 25.8333C23.3288 28.7063 22.192 31.4625 20.1666 33.5C19.5666 34.0833 18.9166 34.5667 18.2333 35H31.6666C33.5166 35 34.9999 33.5167 34.9999 31.6667V15L24.9999 5ZM23.3333 16.6667V7.5L32.4999 16.6667H23.3333ZM12.4999 18.3333C8.33327 18.3333 4.99993 21.6667 4.99993 25.8333C4.99993 27.3 5.4166 28.6833 6.14994 29.8333L1.0166 35L3.33327 37.3167L8.53327 32.2C9.68327 32.9167 11.0499 33.3333 12.4999 33.3333C16.6666 33.3333 19.9999 30 19.9999 25.8333C19.9999 21.6667 16.6666 18.3333 12.4999 18.3333ZM12.4999 30C11.3949 30 10.3351 29.561 9.55366 28.7796C8.77226 27.9982 8.33327 26.9384 8.33327 25.8333C8.33327 24.7283 8.77226 23.6685 9.55366 22.8871C10.3351 22.1057 11.3949 21.6667 12.4999 21.6667C13.605 21.6667 14.6648 22.1057 15.4462 22.8871C16.2276 23.6685 16.6666 24.7283 16.6666 25.8333C16.6666 26.9384 16.2276 27.9982 15.4462 28.7796C14.6648 29.561 13.605 30 12.4999 30Z" fill="#F9668A"/>
</svg>
