<svg width="40" height="40" viewBox="0 0 40 40" fill="none" xmlns="http://www.w3.org/2000/svg">
<path d="M19.9998 19.9998C18.1665 19.9998 16.5971 19.3471 15.2915 18.0415C13.9859 16.7359 13.3332 15.1665 13.3332 13.3332C13.3332 11.4998 13.9859 9.93039 15.2915 8.62484C16.5971 7.31928 18.1665 6.6665 19.9998 6.6665C21.8332 6.6665 23.4026 7.31928 24.7082 8.62484C26.0137 9.93039 26.6665 11.4998 26.6665 13.3332C26.6665 15.1665 26.0137 16.7359 24.7082 18.0415C23.4026 19.3471 21.8332 19.9998 19.9998 19.9998ZM6.6665 29.9998V28.6665C6.6665 27.7221 6.90984 26.8543 7.3965 26.0632C7.88317 25.2721 8.52873 24.6676 9.33317 24.2498C11.0554 23.3887 12.8054 22.7432 14.5832 22.3132C16.3609 21.8832 18.1665 21.6676 19.9998 21.6665C21.8332 21.6654 23.6387 21.8809 25.4165 22.3132C27.1943 22.7454 28.9443 23.3909 30.6665 24.2498C31.4721 24.6665 32.1182 25.2709 32.6048 26.0632C33.0915 26.8554 33.3343 27.7232 33.3332 28.6665V29.9998C33.3332 30.9165 33.0071 31.7015 32.3548 32.3548C31.7026 33.0082 30.9176 33.3343 29.9998 33.3332H9.99984C9.08317 33.3332 8.29873 33.0071 7.6465 32.3548C6.99428 31.7026 6.66762 30.9176 6.6665 29.9998Z" fill="#F9668A"/>
</svg>
