<svg width="40" height="40" viewBox="0 0 40 40" fill="none" xmlns="http://www.w3.org/2000/svg">
<path fill-rule="evenodd" clip-rule="evenodd" d="M23.3332 11.6665C22.8911 11.6665 22.4672 11.8421 22.1547 12.1547C21.8421 12.4672 21.6665 12.8911 21.6665 13.3332V26.6665C21.6665 27.1085 21.8421 27.5325 22.1547 27.845C22.4672 28.1576 22.8911 28.3332 23.3332 28.3332H29.9998C30.4419 28.3332 30.8658 28.1576 31.1783 27.845C31.4909 27.5325 31.6665 27.1085 31.6665 26.6665V13.3332C31.6665 12.8911 31.4909 12.4672 31.1783 12.1547C30.8658 11.8421 30.4419 11.6665 29.9998 11.6665H23.3332ZM28.3332 14.9998H24.9998V24.9998H28.3332V14.9998Z" fill="#F9668A"/>
<path d="M10.0002 11.6665C9.55814 11.6665 9.13421 11.8421 8.82165 12.1547C8.50909 12.4672 8.3335 12.8911 8.3335 13.3332C8.3335 13.7752 8.50909 14.1991 8.82165 14.5117C9.13421 14.8242 9.55814 14.9998 10.0002 14.9998H16.6668C17.1089 14.9998 17.5328 14.8242 17.8453 14.5117C18.1579 14.1991 18.3335 13.7752 18.3335 13.3332C18.3335 12.8911 18.1579 12.4672 17.8453 12.1547C17.5328 11.8421 17.1089 11.6665 16.6668 11.6665H10.0002ZM10.0002 18.3332C9.55814 18.3332 9.13421 18.5088 8.82165 18.8213C8.50909 19.1339 8.3335 19.5578 8.3335 19.9998C8.3335 20.4419 8.50909 20.8658 8.82165 21.1783C9.13421 21.4909 9.55814 21.6665 10.0002 21.6665H16.6668C17.1089 21.6665 17.5328 21.4909 17.8453 21.1783C18.1579 20.8658 18.3335 20.4419 18.3335 19.9998C18.3335 19.5578 18.1579 19.1339 17.8453 18.8213C17.5328 18.5088 17.1089 18.3332 16.6668 18.3332H10.0002ZM8.3335 26.6665C8.3335 26.2245 8.50909 25.8006 8.82165 25.488C9.13421 25.1754 9.55814 24.9998 10.0002 24.9998H16.6668C17.1089 24.9998 17.5328 25.1754 17.8453 25.488C18.1579 25.8006 18.3335 26.2245 18.3335 26.6665C18.3335 27.1085 18.1579 27.5325 17.8453 27.845C17.5328 28.1576 17.1089 28.3332 16.6668 28.3332H10.0002C9.55814 28.3332 9.13421 28.1576 8.82165 27.845C8.50909 27.5325 8.3335 27.1085 8.3335 26.6665Z" fill="#F9668A"/>
<path fill-rule="evenodd" clip-rule="evenodd" d="M6.6665 5C5.34042 5 4.06865 5.52678 3.13097 6.46447C2.19329 7.40215 1.6665 8.67392 1.6665 10V30C1.6665 31.3261 2.19329 32.5979 3.13097 33.5355C4.06865 34.4732 5.34042 35 6.6665 35H33.3332C34.6593 35 35.931 34.4732 36.8687 33.5355C37.8064 32.5979 38.3332 31.3261 38.3332 30V10C38.3332 8.67392 37.8064 7.40215 36.8687 6.46447C35.931 5.52678 34.6593 5 33.3332 5H6.6665ZM33.3332 8.33333H6.6665C6.22448 8.33333 5.80055 8.50893 5.48799 8.82149C5.17543 9.13405 4.99984 9.55797 4.99984 10V30C4.99984 30.442 5.17543 30.866 5.48799 31.1785C5.80055 31.4911 6.22448 31.6667 6.6665 31.6667H33.3332C33.7752 31.6667 34.1991 31.4911 34.5117 31.1785C34.8242 30.866 34.9998 30.442 34.9998 30V10C34.9998 9.55797 34.8242 9.13405 34.5117 8.82149C34.1991 8.50893 33.7752 8.33333 33.3332 8.33333Z" fill="#F9668A"/>
</svg>
